<?xml version="1.0" standalone="no"?>
<!DOCTYPE svg PUBLIC "-//W3C//DTD SVG 20010904//EN"
 "http://www.w3.org/TR/2001/REC-SVG-20010904/DTD/svg10.dtd">
<svg version="1.0" xmlns="http://www.w3.org/2000/svg"
 width="512.000000pt" height="512.000000pt" viewBox="0 0 512.000000 512.000000"
 preserveAspectRatio="xMidYMid meet">

<g transform="translate(0.000000,512.000000) scale(0.100000,-0.100000)"
fill="#000000" stroke="none">
<path d="M4229 4335 c-225 -57 -405 -222 -487 -447 -25 -67 -27 -85 -27 -223
0 -167 9 -213 75 -367 43 -101 105 -202 190 -314 l60 -78 -27 -15 c-48 -25
-92 -62 -113 -96 -13 -20 -31 -35 -49 -38 -86 -18 -90 -126 -5 -149 19 -5 38
-23 55 -51 72 -120 294 -196 539 -184 134 7 208 24 307 72 171 84 229 236 134
355 -28 35 -99 94 -123 102 -8 3 5 27 38 69 271 341 351 701 220 984 -81 173
-212 291 -398 361 -63 23 -91 28 -203 30 -89 2 -148 -1 -186 -11z m296 -150
c91 -24 174 -73 246 -146 276 -277 180 -713 -253 -1146 -62 -62 -118 -113
-126 -113 -21 0 -230 215 -299 308 -298 397 -310 767 -33 995 123 102 309 142
465 102z m-223 -1532 c41 -35 71 -53 88 -53 32 0 85 37 178 125 l70 65 53 -28
c92 -48 103 -109 30 -157 -135 -90 -379 -108 -570 -44 -65 22 -141 82 -141
111 0 26 40 68 88 92 l47 24 48 -42 c26 -22 75 -65 109 -93z"/>
<path d="M4270 3945 c-110 -52 -170 -140 -178 -260 -8 -130 57 -237 176 -293
152 -71 333 -1 405 157 30 64 29 178 -1 241 -56 116 -140 172 -267 177 -70 4
-87 1 -135 -22z m208 -152 c119 -89 63 -275 -82 -275 -117 0 -187 111 -137
214 29 60 80 90 144 85 27 -2 60 -13 75 -24z"/>
<path d="M927 3805 c-273 -52 -508 -195 -669 -409 -273 -362 -289 -825 -46
-1311 90 -180 198 -341 351 -522 38 -45 69 -85 69 -89 -1 -4 -27 -17 -59 -29
-145 -55 -248 -131 -284 -210 -40 -87 -10 -198 72 -269 95 -81 280 -151 482
-180 136 -21 398 -21 534 0 258 38 465 132 533 243 17 28 32 41 48 41 60 0 85
91 36 129 -15 12 -35 21 -44 21 -10 0 -23 13 -30 30 -28 66 -206 186 -308 206
-18 4 -32 10 -32 14 0 5 30 43 68 87 266 309 439 630 503 936 28 130 31 364 6
472 -92 405 -392 720 -782 821 -127 33 -329 41 -448 19z m292 -145 c211 -27
388 -115 541 -269 175 -176 261 -390 261 -644 0 -143 -18 -248 -67 -390 -69
-199 -189 -409 -356 -620 -83 -104 -355 -384 -440 -452 l-48 -37 -37 27 c-67
49 -377 367 -455 465 -218 274 -364 567 -409 820 -21 117 -17 298 9 404 40
159 115 298 226 414 148 155 333 250 544 281 82 12 137 12 231 1z m-375 -2388
c106 -100 235 -202 258 -202 38 0 84 34 255 188 l93 83 61 -16 c185 -48 305
-132 280 -198 -26 -68 -179 -143 -371 -182 -108 -22 -382 -30 -509 -16 -137
16 -275 53 -360 95 -68 35 -131 93 -131 122 0 27 40 73 87 101 45 26 225 93
252 93 7 0 46 -30 85 -68z"/>
<path d="M1003 3196 c-231 -56 -385 -286 -345 -518 34 -196 189 -349 385 -379
298 -46 567 225 517 521 -45 265 -301 438 -557 376z m233 -170 c60 -27 115
-80 146 -139 31 -57 33 -213 5 -266 -28 -51 -96 -120 -142 -144 -61 -31 -187
-36 -249 -8 -77 34 -122 76 -158 148 -27 55 -32 77 -31 132 1 111 42 192 128
251 91 62 200 72 301 26z"/>
<path d="M3384 2770 c-27 -10 -54 -48 -54 -73 0 -10 13 -32 29 -48 28 -28 33
-29 124 -29 80 0 98 3 121 21 29 23 35 72 13 103 -22 30 -181 47 -233 26z"/>
<path d="M3000 2745 c-106 -19 -138 -66 -89 -129 24 -30 47 -32 164 -15 61 9
79 16 95 37 27 33 25 68 -5 97 -28 29 -52 30 -165 10z"/>
<path d="M2610 2606 c-55 -40 -100 -103 -100 -139 0 -35 41 -77 73 -77 17 0
49 23 101 74 67 64 76 78 76 109 0 72 -75 89 -150 33z"/>
<path d="M2590 2252 c-37 -37 -38 -61 -4 -101 36 -43 162 -104 197 -95 46 11
69 61 51 109 -4 9 -30 28 -58 42 -28 14 -63 34 -77 44 -48 34 -75 34 -109 1z"/>
<path d="M3002 2107 c-13 -13 -22 -36 -22 -53 0 -49 32 -69 139 -89 91 -16 95
-16 120 3 34 25 41 90 13 115 -17 16 -156 47 -208 47 -11 0 -30 -10 -42 -23z"/>
<path d="M3435 2016 c-22 -22 -26 -33 -21 -59 9 -44 20 -52 106 -83 108 -38
121 -39 153 -14 29 23 36 65 17 99 -11 22 -124 69 -185 78 -38 5 -47 2 -70
-21z"/>
<path d="M3803 1788 c-32 -16 -48 -60 -34 -99 6 -18 11 -56 11 -86 0 -44 5
-58 25 -78 30 -30 64 -32 99 -4 23 18 26 27 26 85 0 88 -17 150 -48 174 -27
22 -46 24 -79 8z"/>
<path d="M3589 1380 c-87 -44 -102 -60 -102 -101 0 -39 33 -72 73 -72 30 0
171 65 190 88 5 6 13 26 16 43 5 25 1 36 -19 56 -35 35 -67 32 -158 -14z"/>
<path d="M3185 1263 c-91 -16 -120 -31 -129 -68 -8 -32 16 -81 45 -90 27 -9
175 13 211 32 51 25 50 101 -2 128 -16 8 -33 15 -37 14 -4 -1 -44 -8 -88 -16z"/>
<path d="M2693 1213 c-76 -7 -108 -79 -57 -130 25 -25 27 -26 127 -19 92 6
104 9 125 32 29 33 28 69 -3 99 -25 26 -64 29 -192 18z"/>
<path d="M2210 1198 c-48 -26 -52 -105 -7 -130 13 -7 61 -12 120 -13 96 0 99
1 123 28 30 35 30 59 0 94 -23 26 -29 28 -118 31 -62 2 -101 -2 -118 -10z"/>
</g>
</svg>
